<svg width="509" height="108" viewBox="0 0 509 108" fill="none" xmlns="http://www.w3.org/2000/svg">
<path fill-rule="evenodd" clip-rule="evenodd" d="M89.6748 41.4L98 11.6H82.9L76.0443 41.4H89.6748ZM87.1605 50.4H73.9738L70.5 65.5L66.746 50.4H53.829L62 81.4H78.5L87.1605 50.4ZM51.4567 41.4L48.9 31.7L46.2262 41.4H33.6926L41.5 11.6H57.1L64.5085 41.4H51.4567ZM31.3347 50.4H43.7453L35.2 81.4L18.8 81.5L10.4355 50.4H23.8052L27.3 65.8L31.3347 50.4ZM21.7627 41.4L15 11.6H3.2261e-06L8.01488 41.4H21.7627ZM108.141 50.4H122.141V81.4H108.141V50.4ZM122.141 41.4H108.141V26H122.141V41.4ZM136.973 50.4V81.4H150.973V57.8L169.773 81.4H187.973L163.373 53.8L166.358 50.4H136.973ZM196.372 50.4V81.4H210.372V50.4H196.372ZM210.372 41.4H196.372V26H210.372V41.4ZM225.204 50.4V107.8H239.204V73.5C241.137 76.0333 243.637 78.1333 246.704 79.8C249.837 81.4667 253.437 82.3 257.504 82.3C262.237 82.3 266.504 81.1 270.304 78.7C274.171 76.3 277.204 72.9333 279.404 68.6C281.671 64.2 282.804 59.1667 282.804 53.5C282.804 52.4423 282.764 51.4089 282.685 50.4H268.282C268.43 51.3841 268.504 52.4174 268.504 53.5C268.504 56.9 267.804 59.8333 266.404 62.3C265.071 64.7667 263.271 66.6667 261.004 68C258.804 69.3333 256.404 70 253.804 70C251.271 70 248.871 69.3667 246.604 68.1C244.404 66.7667 242.604 64.8667 241.204 62.4C239.871 59.9333 239.204 57.0333 239.204 53.7C239.204 52.5483 239.283 51.4483 239.443 50.4H225.204ZM243.953 41.4H225.204V26H239.204V34C241.004 31.4667 243.471 29.3667 246.604 27.7C249.804 25.9667 253.437 25.1 257.504 25.1C262.237 25.1 266.504 26.2667 270.304 28.6C274.171 30.9333 277.204 34.2667 279.404 38.6C279.883 39.502 280.312 40.4354 280.69 41.4H263.806C262.969 40.5759 262.035 39.8759 261.004 39.3C258.804 38.0333 256.404 37.4 253.804 37.4C251.271 37.4 248.871 38.0667 246.604 39.4C245.644 39.9525 244.761 40.6192 243.953 41.4ZM290.513 50.4C290.422 51.4729 290.377 52.5729 290.377 53.7C290.377 59.3667 291.544 64.3667 293.877 68.7C296.277 73.0333 299.577 76.4 303.777 78.8C308.044 81.1333 312.844 82.3 318.177 82.3C324.777 82.3 330.344 80.6 334.877 77.2C339.411 73.7333 342.477 69.3333 344.077 64H328.977C326.777 68.4667 323.077 70.7 317.877 70.7C314.277 70.7 311.244 69.5667 308.777 67.3C306.311 65.0333 304.911 61.9 304.577 57.9H345.077C345.344 56.3 345.477 54.5 345.477 52.5C345.477 51.789 345.457 51.089 345.417 50.4H290.513ZM343.501 41.4C343.065 40.2942 342.557 39.2275 341.977 38.2C339.711 34 336.477 30.7667 332.277 28.5C328.144 26.2333 323.444 25.1 318.177 25.1C312.711 25.1 307.877 26.2667 303.677 28.6C299.477 30.9333 296.211 34.2667 293.877 38.6C293.391 39.5029 292.956 40.4363 292.571 41.4H307.478C307.928 40.8204 308.427 40.287 308.977 39.8C311.377 37.6667 314.311 36.6 317.777 36.6C321.444 36.6 324.544 37.7 327.077 39.9C327.63 40.3651 328.123 40.8651 328.559 41.4H343.501ZM353.213 50.4C353.135 51.4108 353.096 52.4441 353.096 53.5C353.096 59.1667 354.196 64.2 356.396 68.6C358.663 72.9333 361.729 76.3 365.596 78.7C369.463 81.1 373.729 82.3 378.396 82.3C382.529 82.3 386.163 81.4667 389.296 79.8C392.429 78.1333 394.863 75.9333 396.596 73.2V81.4H410.796V50.4H396.464C396.619 51.442 396.696 52.542 396.696 53.7C396.696 57.1 396.029 60.0333 394.696 62.5C393.363 64.9 391.563 66.7667 389.296 68.1C387.029 69.3667 384.596 70 381.996 70C379.463 70 377.063 69.3333 374.796 68C372.596 66.6667 370.796 64.7667 369.396 62.3C368.063 59.7667 367.396 56.8333 367.396 53.5C367.396 52.4174 367.466 51.3841 367.607 50.4H353.213ZM372.043 41.4H355.161C355.525 40.439 355.936 39.5057 356.396 38.6C358.663 34.2667 361.729 30.9333 365.596 28.6C369.463 26.2667 373.763 25.1 378.496 25.1C382.096 25.1 385.529 25.9 388.796 27.5C392.063 29.0333 394.663 31.1 396.596 33.7V7.39999H410.796V41.4H391.996C391.185 40.6192 390.285 39.9525 389.296 39.4C387.029 38.0667 384.596 37.4 381.996 37.4C379.396 37.4 376.996 38.0333 374.796 39.3C373.796 39.8759 372.878 40.5759 372.043 41.4ZM425.47 50.4V81.4H439.47V50.4H425.47ZM439.47 41.4H425.47V26H439.47V41.4ZM450.819 50.4C450.741 51.4108 450.702 52.4441 450.702 53.5C450.702 59.1667 451.802 64.2 454.002 68.6C456.268 72.9333 459.302 76.3 463.102 78.7C466.968 81.1 471.235 82.3 475.902 82.3C480.035 82.3 483.668 81.4667 486.802 79.8C490.002 78.0667 492.502 75.9 494.302 73.3V81.4H508.402V50.4H494.07C494.224 51.442 494.302 52.542 494.302 53.7C494.302 57.1 493.635 60.0333 492.302 62.5C490.968 64.9 489.168 66.7667 486.902 68.1C484.635 69.3667 482.202 70 479.602 70C477.068 70 474.668 69.3333 472.402 68C470.202 66.6667 468.402 64.7667 467.002 62.3C465.668 59.7667 465.002 56.8333 465.002 53.5C465.002 52.4174 465.072 51.3841 465.213 50.4H450.819ZM469.649 41.4H452.766C453.13 40.439 453.542 39.5057 454.002 38.6C456.268 34.2667 459.302 30.9333 463.102 28.6C466.968 26.2667 471.268 25.1 476.002 25.1C480.135 25.1 483.735 25.9333 486.802 27.6C489.935 29.2667 492.435 31.3667 494.302 33.9V26H508.402V41.4H489.601C488.79 40.6192 487.89 39.9525 486.902 39.4C484.635 38.0667 482.202 37.4 479.602 37.4C477.002 37.4 474.602 38.0333 472.402 39.3C471.401 39.8759 470.484 40.5759 469.649 41.4ZM174.257 41.4H157.385L169.573 26H187.773L174.257 41.4ZM150.973 41.4H136.973V7.39999H150.973V41.4ZM109.041 17.1C110.708 18.6333 112.775 19.4 115.241 19.4C117.708 19.4 119.741 18.6333 121.341 17.1C123.008 15.5 123.841 13.5333 123.841 11.2C123.841 8.86666 123.008 6.93332 121.341 5.39999C119.741 3.79999 117.708 2.99999 115.241 2.99999C112.775 2.99999 110.708 3.79999 109.041 5.39999C107.441 6.93332 106.641 8.86666 106.641 11.2C106.641 13.5333 107.441 15.5 109.041 17.1ZM197.272 17.1C198.939 18.6333 201.005 19.4 203.472 19.4C205.939 19.4 207.972 18.6333 209.572 17.1C211.239 15.5 212.072 13.5333 212.072 11.2C212.072 8.86666 211.239 6.93332 209.572 5.39999C207.972 3.79999 205.939 2.99999 203.472 2.99999C201.005 2.99999 198.939 3.79999 197.272 5.39999C195.672 6.93332 194.872 8.86666 194.872 11.2C194.872 13.5333 195.672 15.5 197.272 17.1ZM305.877 21.9L328.877 11.4V-7.15256e-06L305.877 11.9V21.9ZM426.37 17.1C428.036 18.6333 430.103 19.4 432.57 19.4C435.036 19.4 437.07 18.6333 438.67 17.1C440.336 15.5 441.17 13.5333 441.17 11.2C441.17 8.86666 440.336 6.93332 438.67 5.39999C437.07 3.79999 435.036 2.99999 432.57 2.99999C430.103 2.99999 428.036 3.79999 426.37 5.39999C424.77 6.93332 423.97 8.86666 423.97 11.2C423.97 13.5333 424.77 15.5 426.37 17.1Z" fill="black"/>
</svg>
