<svg width="73" height="73" viewBox="0 0 73 73" fill="none" xmlns="http://www.w3.org/2000/svg">
<rect width="73" height="73" rx="15" fill="black"/>
<path d="M29 21.9688V22.9844C28.0365 23.0755 27.3724 23.2122 27.0078 23.3945C26.6562 23.5768 26.4805 23.9935 26.4805 24.6445C26.4805 24.8138 26.5 25.0156 26.5391 25.25C26.5781 25.4714 26.6367 25.7057 26.7148 25.9531L31.3438 39.9375H31.6758L36.2656 28.2188C36.2917 28.1536 36.1029 27.5612 35.6992 26.4414C35.3086 25.3216 35.0352 24.6315 34.8789 24.3711C34.5794 23.9023 34.2474 23.5703 33.8828 23.375C33.5312 23.1797 32.8867 23.0495 31.9492 22.9844V21.9688H44.4492V22.9844C43.3034 23.0755 42.5352 23.1992 42.1445 23.3555C41.7669 23.5117 41.5781 23.8633 41.5781 24.4102C41.5781 24.5404 41.6172 24.7943 41.6953 25.1719C41.7865 25.5365 41.9362 26.0443 42.1445 26.6953L46.3047 39.5664H46.5781L50.9336 26.4219C51.0117 26.1875 51.0768 25.9401 51.1289 25.6797C51.181 25.4062 51.207 25.1068 51.207 24.7812C51.207 24.0391 50.9271 23.5443 50.3672 23.2969C50.0286 23.1406 49.3841 23.0365 48.4336 22.9844V21.9688H55.7578V22.9844C55.1458 23.0755 54.6706 23.2318 54.332 23.4531C53.7461 23.8568 53.2904 24.5534 52.9648 25.543L44.957 49.6641H43.9023L37.1836 30.9141H36.9102L29.5859 49.6641H28.4727L20.0156 25.543C19.651 24.4883 19.2865 23.8177 18.9219 23.5312C18.5573 23.2448 17.9909 23.0495 17.2227 22.9453V21.9688H29Z" fill="white"/>
</svg>
